<?xml version="1.0" standalone="no"?><!DOCTYPE svg PUBLIC "-//W3C//DTD SVG 1.1//EN" "http://www.w3.org/Graphics/SVG/1.1/DTD/svg11.dtd"><svg t="1490619695338" class="icon" style="" viewBox="0 0 1024 1024" version="1.1" xmlns="http://www.w3.org/2000/svg" p-id="2397" xmlns:xlink="http://www.w3.org/1999/xlink" width="80" height="80"><defs><style type="text/css"></style></defs><path d="M877.728 313.472H62.688A62.688 62.688 0 0 0 0 376.16v271.68c0 34.624 28.064 62.688 62.688 62.688h815.04a62.688 62.688 0 0 0 62.688-62.688v-271.68a62.688 62.688 0 0 0-62.688-62.688z m41.792 334.368c0 23.072-18.72 41.792-41.792 41.792H62.688a41.792 41.792 0 0 1-41.792-41.792v-271.68c0-23.072 18.72-41.792 41.792-41.792h815.04c23.072 0 41.792 18.72 41.792 41.792v271.68z" p-id="2398" fill="#2c2c2c"></path><path d="M62.688 355.264h815.04c11.52 0 20.896 9.344 20.896 20.896v271.68c0 11.52-9.344 20.896-20.896 20.896H62.688a20.896 20.896 0 0 1-20.896-20.896v-271.68c0-11.552 9.344-20.896 20.896-20.896zM961.312 438.848A62.72 62.72 0 0 1 1024 501.568v20.864a62.688 62.688 0 0 1-62.688 62.688v-146.272z" p-id="2399" fill="#2c2c2c"></path></svg>