<?xml version="1.0" standalone="no"?><!DOCTYPE svg PUBLIC "-//W3C//DTD SVG 1.1//EN" "http://www.w3.org/Graphics/SVG/1.1/DTD/svg11.dtd"><svg t="1490618332970" class="icon" style="" viewBox="0 0 1024 1024" version="1.1" xmlns="http://www.w3.org/2000/svg" p-id="529" xmlns:xlink="http://www.w3.org/1999/xlink" width="80" height="80"><defs><style type="text/css"></style></defs><path d="M513.023306 512m-69.616544 0a68.031 68.031 0 1 0 139.233088 0 68.031 68.031 0 1 0-139.233088 0Z" p-id="530"></path><path d="M322.1767 512m-69.616544 0a68.031 68.031 0 1 0 139.233088 0 68.031 68.031 0 1 0-139.233088 0Z" p-id="531"></path><path d="M131.330094 512m-69.616544 0a68.031 68.031 0 1 0 139.233088 0 68.031 68.031 0 1 0-139.233088 0Z" p-id="532"></path><path d="M703.869912 512m-69.616544 0a68.031 68.031 0 1 0 139.233088 0 68.031 68.031 0 1 0-139.233088 0Z" p-id="533"></path><path d="M894.716518 512m-69.616544 0a68.031 68.031 0 1 0 139.233088 0 68.031 68.031 0 1 0-139.233088 0Z" p-id="534"></path></svg>